<svg xmlns="http://www.w3.org/2000/svg" xmlns:xlink="http://www.w3.org/1999/xlink" width="500" zoomAndPan="magnify" viewBox="0 0 375 374.999991" height="500" preserveAspectRatio="xMidYMid meet" version="1.0"><defs><clipPath id="aa26fbde3c"><path d="M 113 119.683594 L 262 119.683594 L 262 268 L 113 268 Z M 113 119.683594 " clip-rule="nonzero"/></clipPath></defs><g clip-path="url(#aa26fbde3c)"><path fill="#1295c9" d="M 196.371094 255.636719 C 196.269531 256.953125 195.898438 258.265625 195.25 259.480469 L 192.742188 264.167969 C 193.65625 264.691406 194.589844 265.242188 195.5 265.746094 C 197.675781 266.941406 200.433594 266.027344 201.613281 263.878906 C 202.835938 261.65625 202.003906 258.863281 199.800781 257.632812 C 198.664062 256.992188 197.519531 256.285156 196.371094 255.636719 Z M 165.21875 208.027344 C 172.046875 215.355469 179.941406 212.160156 187.445312 209.121094 C 194.300781 206.347656 200.886719 203.679688 207.15625 207.257812 L 231.5625 221.164062 C 232.429688 221.660156 233.195312 222.269531 233.84375 222.960938 C 233.964844 223.09375 234.085938 223.226562 234.203125 223.367188 L 237.832031 221.851562 L 225.386719 189.746094 C 219.84375 192.714844 215.816406 191.007812 210.367188 188.78125 C 204.417969 186.351562 197.449219 183.5 187.960938 190.007812 C 182.78125 193.550781 178.621094 198.589844 173.386719 202.519531 C 170.792969 204.46875 168.0625 206.300781 165.21875 208.027344 Z M 166.363281 232.996094 C 164.378906 231.933594 162.105469 231.601562 159.898438 232.039062 C 159.507812 228.902344 157.636719 226.132812 154.832031 224.636719 C 151.011719 222.597656 146.285156 223.34375 143.273438 226.425781 C 142.671875 223.316406 141.835938 220.289062 138.324219 218.925781 C 138.113281 218.84375 137.765625 218.695312 137.304688 218.5 L 151.3125 186.804688 L 152.925781 187.550781 C 157.828125 190.273438 162.375 189.207031 167.316406 188.050781 C 171.757812 187.007812 176.585938 185.878906 182.054688 188.289062 C 178.0625 191.613281 174.601562 195.433594 170.425781 198.570312 C 167.5625 200.71875 164.421875 202.777344 161.046875 204.746094 C 159.320312 205.753906 158.875 208.070312 160.101562 209.652344 C 169.492188 221.734375 179.664062 217.613281 189.304688 213.710938 C 195.03125 211.394531 200.527344 209.167969 204.71875 211.554688 L 229.121094 225.464844 C 231.292969 226.703125 232.179688 229.457031 230.960938 231.691406 C 229.707031 233.867188 227.042969 234.769531 224.796875 233.546875 C 219.210938 230.351562 213.5625 227.25 207.972656 224.050781 C 206.785156 223.371094 205.273438 223.785156 204.59375 224.972656 C 203.914062 226.160156 204.328125 227.671875 205.515625 228.351562 C 211.097656 231.546875 216.714844 234.695312 222.328125 237.839844 C 224.523438 239.074219 225.375 241.847656 224.152344 244.074219 C 222.96875 246.222656 220.109375 247.128906 217.949219 245.886719 L 195.84375 233.449219 C 194.652344 232.78125 193.144531 233.203125 192.472656 234.398438 C 191.804688 235.589844 192.230469 237.097656 193.421875 237.765625 C 199.4375 241.152344 205.4375 244.589844 211.453125 247.960938 C 213.667969 249.210938 214.5 251.988281 213.261719 254.226562 C 212.035156 256.417969 209.25 257.21875 207.050781 256 L 194.203125 248.730469 C 193.386719 247.730469 192.386719 246.914062 191.253906 246.308594 C 188.886719 245.042969 186.136719 244.8125 183.601562 245.652344 C 182.890625 243.074219 181.175781 240.914062 178.808594 239.652344 C 176.445312 238.390625 173.695312 238.160156 171.15625 239 C 170.449219 236.421875 168.730469 234.257812 166.363281 232.996094 Z M 177.65625 262.078125 C 177.300781 264.101562 178.292969 266.175781 180.109375 267.148438 C 182.425781 268.386719 185.351562 267.5 186.589844 265.183594 L 190.886719 257.148438 C 192.125 254.832031 191.222656 251.898438 188.921875 250.671875 C 186.992188 249.640625 184.558594 250.074219 183.097656 251.695312 Z M 178.855469 249.429688 C 179.394531 247.3125 178.414062 245.046875 176.480469 244.015625 C 174.550781 242.984375 172.117188 243.417969 170.65625 245.042969 L 164.578125 256.695312 C 164.285156 258.6875 165.269531 260.683594 167.050781 261.636719 C 169.15625 262.761719 171.8125 262.140625 173.203125 260.207031 Z M 166.410156 242.773438 C 166.949219 240.65625 165.96875 238.394531 164.035156 237.359375 C 162.242188 236.402344 160.023438 236.695312 158.527344 238.066406 L 151.480469 250.675781 C 150.242188 252.992188 151.128906 255.914062 153.445312 257.152344 C 155.792969 258.410156 158.691406 257.496094 159.941406 255.160156 Z M 154.597656 235.207031 C 155.636719 232.933594 154.710938 230.179688 152.503906 229 C 150.183594 227.761719 147.261719 228.644531 146.023438 230.964844 L 141.542969 239.339844 C 140.300781 241.660156 141.1875 244.582031 143.503906 245.820312 C 145.289062 246.773438 147.496094 246.484375 148.988281 245.136719 Z M 187.515625 119.699219 L 220.089844 133.660156 L 220.089844 160 C 220.089844 169.253906 216.917969 177.5 211.554688 183.9375 C 209.554688 183.125 207.453125 182.300781 205.207031 181.726562 C 205.75 181.164062 206.273438 180.582031 206.777344 179.980469 C 211.25 174.609375 213.894531 167.753906 213.894531 160 L 213.894531 139.378906 C 213.894531 138.292969 213.199219 137.371094 212.226562 137.035156 L 188.484375 126.859375 C 187.839844 126.585938 187.144531 126.605469 186.546875 126.859375 L 162.648438 137.101562 C 161.707031 137.503906 161.140625 138.417969 161.140625 139.378906 L 161.136719 160 C 161.136719 167.753906 163.78125 174.609375 168.253906 179.980469 C 168.933594 180.796875 169.65625 181.574219 170.417969 182.320312 C 168.972656 182.578125 167.566406 182.90625 166.191406 183.226562 C 165.242188 183.449219 164.3125 183.667969 163.402344 183.847656 C 158.085938 177.421875 154.941406 169.210938 154.941406 160 L 154.941406 133.660156 Z M 187.515625 131.824219 L 166.09375 141.007812 L 166.09375 160 C 166.09375 166.558594 168.304688 172.328125 172.050781 176.824219 C 173.695312 178.796875 175.636719 180.527344 177.820312 181.980469 C 180.539062 182.292969 183.429688 183.183594 186.539062 185.03125 C 191.03125 182.222656 195.019531 181.113281 198.625 180.972656 C 200.238281 179.75 201.703125 178.359375 202.980469 176.824219 C 206.726562 172.328125 208.9375 166.558594 208.9375 160 L 208.9375 141.007812 Z M 202.667969 153.402344 C 197.378906 158.738281 192.128906 164.109375 186.816406 169.425781 C 185.261719 170.976562 182.742188 170.976562 181.1875 169.425781 L 172.375 160.609375 C 170.820312 159.054688 170.820312 156.535156 172.375 154.984375 C 173.925781 153.429688 176.449219 153.429688 178 154.984375 L 183.992188 160.976562 L 197.035156 147.804688 C 198.578125 146.246094 201.097656 146.242188 202.652344 147.789062 C 204.207031 149.332031 204.210938 151.84375 202.667969 153.402344 Z M 261.585938 219.34375 L 243.824219 173.535156 C 242.96875 171.320312 240.453125 170.210938 238.238281 171.070312 L 229.417969 174.488281 C 227.203125 175.347656 226.09375 177.863281 226.953125 180.078125 L 244.710938 225.886719 C 245.570312 228.101562 248.085938 229.210938 250.300781 228.351562 L 259.117188 224.933594 C 261.332031 224.074219 262.441406 221.558594 261.585938 219.34375 Z M 237.054688 184.039062 C 235.429688 184.039062 234.113281 182.722656 234.113281 181.097656 C 234.113281 179.476562 235.429688 178.160156 237.054688 178.160156 C 238.675781 178.160156 239.992188 179.476562 239.992188 181.097656 C 239.992188 182.722656 238.675781 184.039062 237.054688 184.039062 Z M 147.730469 171.964844 L 139.082031 168.140625 C 136.90625 167.179688 134.34375 168.171875 133.382812 170.347656 L 113.523438 215.28125 C 112.5625 217.457031 113.554688 220.019531 115.726562 220.980469 L 124.378906 224.800781 C 126.550781 225.761719 129.113281 224.769531 130.074219 222.597656 L 149.9375 177.660156 C 150.894531 175.488281 149.902344 172.925781 147.730469 171.964844 Z M 139.664062 181.148438 C 138.042969 181.074219 136.789062 179.699219 136.863281 178.078125 C 136.9375 176.457031 138.3125 175.203125 139.933594 175.277344 C 141.558594 175.351562 142.808594 176.730469 142.734375 178.351562 C 142.660156 179.972656 141.285156 181.226562 139.664062 181.148438 Z M 139.664062 181.148438 " fill-opacity="1" fill-rule="evenodd"/></g></svg>