<svg xmlns="http://www.w3.org/2000/svg" xmlns:xlink="http://www.w3.org/1999/xlink" width="500" zoomAndPan="magnify" viewBox="0 0 375 374.999991" height="500" preserveAspectRatio="xMidYMid meet" version="1.0"><defs><clipPath id="231d462665"><path d="M 4 4.085938 L 371 4.085938 L 371 370 L 4 370 Z M 4 4.085938 " clip-rule="nonzero"/></clipPath></defs><g clip-path="url(#231d462665)"><path fill="#1295c9" d="M 209.382812 339.484375 C 209.136719 342.738281 208.222656 345.972656 206.617188 348.972656 L 200.433594 360.535156 C 202.6875 361.828125 204.988281 363.1875 207.238281 364.421875 C 212.605469 367.375 219.40625 365.125 222.320312 359.820312 C 225.332031 354.339844 223.277344 347.449219 217.84375 344.40625 C 215.039062 342.832031 212.210938 341.089844 209.382812 339.484375 Z M 132.53125 222.035156 C 149.371094 240.105469 168.855469 232.222656 187.367188 224.730469 C 204.28125 217.882812 220.519531 211.308594 235.992188 220.128906 L 296.199219 254.445312 C 298.347656 255.667969 300.230469 257.167969 301.828125 258.875 C 302.132812 259.199219 302.429688 259.53125 302.714844 259.875 L 311.667969 256.136719 L 280.964844 176.933594 C 267.289062 184.25 257.359375 180.046875 243.917969 174.550781 C 229.242188 168.550781 212.042969 161.523438 188.640625 177.578125 C 175.859375 186.3125 165.597656 198.746094 152.683594 208.441406 C 146.28125 213.246094 139.550781 217.773438 132.53125 222.035156 Z M 135.355469 283.628906 C 130.457031 281.015625 124.84375 280.191406 119.40625 281.265625 C 118.445312 273.527344 113.820312 266.695312 106.90625 263.003906 C 97.484375 257.976562 85.820312 259.820312 78.386719 267.425781 C 76.90625 259.753906 74.847656 252.28125 66.179688 248.917969 C 65.660156 248.714844 64.796875 248.355469 63.664062 247.867188 L 98.226562 169.675781 L 102.203125 171.511719 C 114.300781 178.226562 125.515625 175.601562 137.703125 172.746094 C 148.660156 170.175781 160.574219 167.386719 174.0625 173.335938 C 164.214844 181.535156 155.675781 190.960938 145.375 198.695312 C 138.3125 204 130.566406 209.074219 122.242188 213.933594 C 117.980469 216.421875 116.878906 222.140625 119.902344 226.035156 C 143.066406 255.84375 168.171875 245.679688 191.953125 236.050781 C 206.078125 230.335938 219.640625 224.84375 229.972656 230.734375 L 290.179688 265.050781 C 295.539062 268.105469 297.730469 274.898438 294.71875 280.417969 C 291.621094 285.777344 285.054688 288.003906 279.515625 284.992188 C 265.730469 277.109375 251.796875 269.457031 238.007812 261.566406 C 235.078125 259.890625 231.34375 260.90625 229.671875 263.835938 C 227.996094 266.761719 229.011719 270.496094 231.941406 272.171875 C 245.71875 280.058594 259.574219 287.820312 273.425781 295.578125 C 278.84375 298.628906 280.941406 305.46875 277.921875 310.957031 C 275.007812 316.257812 267.949219 318.5 262.617188 315.429688 L 208.082031 284.746094 C 205.140625 283.097656 201.417969 284.144531 199.769531 287.085938 C 198.121094 290.027344 199.167969 293.75 202.113281 295.398438 C 216.949219 303.746094 231.753906 312.234375 246.589844 320.554688 C 252.058594 323.632812 254.105469 330.484375 251.054688 336.007812 C 248.027344 341.414062 241.160156 343.386719 235.730469 340.386719 L 204.03125 322.445312 C 202.023438 319.984375 199.558594 317.964844 196.753906 316.46875 C 190.925781 313.355469 184.136719 312.785156 177.878906 314.859375 C 176.128906 308.496094 171.898438 303.167969 166.054688 300.050781 C 160.222656 296.9375 153.4375 296.367188 147.179688 298.441406 C 145.429688 292.078125 141.195312 286.746094 135.355469 283.628906 Z M 163.214844 355.382812 C 162.335938 360.371094 164.78125 365.488281 169.265625 367.882812 C 174.984375 370.941406 182.195312 368.757812 185.253906 363.039062 L 195.851562 343.222656 C 198.910156 337.5 196.679688 330.265625 191.007812 327.234375 C 186.25 324.691406 180.246094 325.765625 176.640625 329.765625 Z M 166.171875 324.171875 C 167.496094 318.945312 165.082031 313.363281 160.308594 310.816406 C 155.550781 308.277344 149.546875 309.34375 145.941406 313.347656 L 130.953125 342.09375 C 130.222656 347.007812 132.65625 351.941406 137.054688 354.292969 C 142.242188 357.066406 148.796875 355.535156 152.222656 350.757812 Z M 135.472656 307.75 C 136.796875 302.527344 134.382812 296.945312 129.609375 294.398438 C 125.1875 292.039062 119.707031 292.761719 116.027344 296.136719 L 98.640625 327.242188 C 95.582031 332.960938 97.769531 340.171875 103.484375 343.230469 C 109.273438 346.324219 116.429688 344.070312 119.515625 338.308594 Z M 106.332031 289.089844 C 108.890625 283.476562 106.609375 276.683594 101.160156 273.773438 C 95.441406 270.722656 88.230469 272.894531 85.167969 278.617188 L 74.113281 299.285156 C 71.058594 305 73.242188 312.210938 78.960938 315.269531 C 83.355469 317.621094 88.804688 316.910156 92.488281 313.578125 Z M 187.535156 4.117188 L 267.902344 38.558594 L 267.902344 103.542969 C 267.902344 126.378906 260.074219 146.714844 246.84375 162.601562 C 241.90625 160.589844 236.722656 158.5625 231.179688 157.144531 C 232.527344 155.757812 233.820312 154.320312 235.054688 152.835938 C 246.09375 139.585938 252.617188 122.671875 252.617188 103.542969 L 252.617188 52.671875 C 252.617188 49.996094 250.894531 47.71875 248.5 46.890625 L 189.925781 21.789062 C 188.335938 21.113281 186.621094 21.160156 185.148438 21.789062 L 126.183594 47.058594 C 123.863281 48.042969 122.472656 50.300781 122.46875 52.671875 L 122.457031 103.542969 C 122.457031 122.671875 128.980469 139.585938 140.019531 152.835938 C 141.695312 154.847656 143.476562 156.773438 145.355469 158.609375 C 141.785156 159.246094 138.320312 160.054688 134.929688 160.851562 C 132.589844 161.398438 130.292969 161.9375 128.046875 162.378906 C 114.929688 146.523438 107.171875 126.269531 107.171875 103.542969 L 107.171875 38.558594 Z M 187.535156 34.039062 L 134.6875 56.6875 L 134.6875 103.542969 C 134.6875 119.726562 140.144531 133.960938 149.382812 145.046875 C 153.4375 149.914062 158.230469 154.1875 163.617188 157.769531 C 170.328125 158.542969 177.457031 160.738281 185.125 165.296875 C 196.214844 158.371094 206.046875 155.636719 214.945312 155.289062 C 218.929688 152.265625 222.535156 148.835938 225.691406 145.046875 C 234.929688 133.960938 240.386719 119.726562 240.386719 103.542969 L 240.386719 56.6875 Z M 224.921875 87.265625 C 211.875 100.433594 198.914062 113.6875 185.808594 126.792969 C 181.976562 130.625 175.761719 130.625 171.929688 126.792969 L 150.183594 105.050781 C 146.351562 101.21875 146.351562 95 150.183594 91.167969 C 154.015625 87.335938 160.230469 87.335938 164.0625 91.167969 L 178.847656 105.953125 L 211.019531 73.460938 C 214.828125 69.613281 221.042969 69.601562 224.878906 73.417969 C 228.714844 77.230469 228.726562 83.425781 224.921875 87.265625 Z M 370.269531 249.949219 L 326.457031 136.941406 C 324.339844 131.476562 318.132812 128.738281 312.667969 130.855469 L 290.914062 139.292969 C 285.453125 141.410156 282.714844 147.613281 284.832031 153.078125 L 328.644531 266.085938 C 330.761719 271.550781 336.964844 274.289062 342.429688 272.171875 L 364.183594 263.738281 C 369.648438 261.621094 372.386719 255.414062 370.269531 249.949219 Z M 309.75 162.847656 C 305.746094 162.847656 302.5 159.601562 302.5 155.597656 C 302.5 151.59375 305.746094 148.347656 309.75 148.347656 C 313.753906 148.347656 317 151.59375 317 155.597656 C 317 159.601562 313.753906 162.847656 309.75 162.847656 Z M 89.386719 133.0625 L 68.046875 123.632812 C 62.683594 121.261719 56.359375 123.710938 53.992188 129.070312 L 4.992188 239.929688 C 2.625 245.289062 5.070312 251.613281 10.433594 253.984375 L 31.773438 263.417969 C 37.132812 265.785156 43.457031 263.339844 45.824219 257.976562 L 94.824219 147.117188 C 97.195312 141.757812 94.746094 135.433594 89.386719 133.0625 Z M 69.480469 155.722656 C 65.484375 155.535156 62.390625 152.144531 62.578125 148.144531 C 62.761719 144.144531 66.152344 141.050781 70.152344 141.238281 C 74.152344 141.421875 77.246094 144.816406 77.058594 148.816406 C 76.875 152.816406 73.480469 155.90625 69.480469 155.722656 Z M 69.480469 155.722656 " fill-opacity="1" fill-rule="evenodd"/></g></svg>